<svg xmlns="http://www.w3.org/2000/svg" width="12.854" height="14.977"><path d="M0 13.573a1.391 1.391 0 001.377 1.4h10.1a1.391 1.391 0 001.377-1.4V5.616H0zm9.182-5.734a.349.349 0 01.344-.351h1.148a.349.349 0 01.344.351v1.17a.349.349 0 01-.344.351H9.526a.349.349 0 01-.344-.351zm0 3.744a.349.349 0 01.344-.351h1.148a.349.349 0 01.344.351v1.17a.349.349 0 01-.344.351H9.526a.349.349 0 01-.344-.351zM5.509 7.839a.349.349 0 01.344-.351H7a.349.349 0 01.344.351v1.17A.349.349 0 017 9.36H5.853a.349.349 0 01-.344-.351zm0 3.744a.349.349 0 01.344-.351H7a.349.349 0 01.344.351v1.17A.349.349 0 017 13.1H5.853a.349.349 0 01-.344-.351zM1.836 7.839a.349.349 0 01.344-.351h1.148a.349.349 0 01.344.351v1.17a.349.349 0 01-.344.351H2.181a.349.349 0 01-.344-.351zm0 3.744a.349.349 0 01.344-.351h1.148a.349.349 0 01.344.351v1.17a.349.349 0 01-.344.351H2.181a.349.349 0 01-.344-.351zm9.641-9.711H10.1V.468A.465.465 0 009.641 0h-.918a.465.465 0 00-.459.468v1.4H4.591v-1.4A.465.465 0 004.132 0h-.918a.465.465 0 00-.459.468v1.4H1.377A1.391 1.391 0 000 3.276v1.4h12.854v-1.4a1.391 1.391 0 00-1.377-1.404z" fill="#393939"/></svg>